<?xml version="1.0" encoding="UTF-8"?> <svg xmlns="http://www.w3.org/2000/svg" xmlns:xlink="http://www.w3.org/1999/xlink" version="1.1" width="3240.9638554216867" height="1155.1673839882808" viewBox="0 0 3240.9638554216867 1155.1673839882808"><g transform="scale(12.048192771084338) translate(10, 10)"><defs id="SvgjsDefs9715"></defs><g id="SvgjsG9716" transform="matrix(0.2005030388673841,0,0,0.2005030388673841,-0.32878865806784674,-20.50608980253396)" fill="#005f6a"><metadata xmlns="http://www.w3.org/2000/svg"></metadata><metadata xmlns="http://www.w3.org/2000/svg"></metadata><g xmlns="http://www.w3.org/2000/svg" xmlns:ivector="http://www.vector.evaxdesign.sk" ivector:layername="Layer 1" transform="translate(-0.32928436,3.5291333)"><path d="m 257.312,108.719 c 10e-4,0 -16.705,26.539 -27.124,43.093 10.626,-1.631 24.004,-4.149 38.25,-6.937 1.547,-2.609 2.951,-5.002 3.718,-6.281 0.654,-1.091 1.186,-1.878 1.813,-2.906 -5.577,-9.026 -16.656,-26.969 -16.657,-26.969 z m 26.75,43.312 c -3.673,0.744 -5.953,1.115 -9.312,1.781 -0.326,0.551 -1.03,1.77 -1.188,2.032 -11.891,19.819 -21.869,40.582 -30.531,62.718 17.997,-8.944 36.228,-19.527 56.094,-32.468 0.8,-0.522 3.191,-2.163 4.219,-2.844 -7.401,-11.996 -12.62,-20.442 -19.282,-31.219 z m -22.25,4.281 c -14.099,2.679 -27.615,5.133 -38.656,6.657 -9.298,14.773 -12.08,19.21 -21.562,34.281 2.624,3.29 4.85,5.888 7.375,8.656 6.128,6.721 12.324,13.332 18.531,19.938 0.852,-0.379 1.711,-0.709 2.562,-1.094 8.906,-24.333 19.406,-47.048 31.75,-68.438 z m 46.782,35.438 c -0.973,0.643 -3.233,2.219 -4,2.719 -23.712,15.447 -45.195,27.771 -66.719,37.812 -0.393,1.105 -0.739,2.262 -1.125,3.375 6.399,6.708 12.84,13.334 19.281,19.875 16.722,-5.148 34.069,-10.572 53,-16.687 3.589,-6.861 8.358,-15.785 13.313,-24.875 -4.649,-7.501 -9.44,-15.235 -13.75,-22.219 z m -112.469,14.219 c -11.329,18.006 -13.948,22.164 -25.031,39.781 16.371,-4.35 31.658,-9.547 46.656,-15.719 -5.412,-5.782 -10.838,-11.539 -16.188,-17.406 -1.333,-1.463 -3.523,-4.299 -5.437,-6.656 z m 132.313,17.812 c -1.835,3.391 -4.127,7.533 -5.813,10.688 3.647,-1.19 6.558,-2.101 10.344,-3.344 -1.549,-2.507 -2.981,-4.839 -4.531,-7.344 z m -103.344,14.125 c -18.385,7.783 -37.117,14.092 -57.625,19.219 -1.441,0.36 -2.948,0.891 -4.375,1.344 -0.071,0.112 -0.087,0.139 -0.156,0.25 0.979,6.494 2.265,14.501 3.656,22.593 5.369,-1.328 10.181,-2.62 19.344,-5.187 0.746,-0.209 5.06,-1.435 5.968,-1.687 8.271,-2.302 16.428,-4.702 24.594,-7.063 0.82,-2.976 1.548,-6.064 2.406,-9 2.013,-6.889 4.271,-13.49 6.5,-20.125 -0.106,-0.112 -0.206,-0.232 -0.312,-0.344 z m 113.281,1.938 c -8.197,2.696 -14.691,4.729 -22.281,7.187 -9.189,17.623 -16.096,31.958 -22.063,45.781 0.552,0.525 1.104,1.037 1.657,1.563 16.006,-15.49 32.501,-30.025 49.5,-43.531 -2.422,-3.917 -4.402,-7.1 -6.813,-11 z m -105.219,6.437 c -1.884,5.853 -3.7,11.8 -5.437,17.875 5.601,-1.648 11.739,-3.578 17.562,-5.344 -4.055,-4.142 -8.087,-8.323 -12.125,-12.531 z m 69.344,5.125 c -13.352,4.278 -26.133,8.322 -38.5,12.156 7.416,7.431 14.831,14.754 22.25,21.907 4.451,-10.137 9.431,-20.62 15.031,-31.75 0.384,-0.764 0.838,-1.559 1.219,-2.313 z m 48,8 c -16.308,13.005 -32.142,26.972 -47.531,41.844 2.233,2.117 4.464,4.291 6.687,6.344 6.59,6.082 24.526,21.214 24.532,21.218 2.634,2.204 3.941,3.346 6.124,5.188 5.904,-7.17 11.23,-13.626 13.063,-15.875 -1.154,1.416 9.612,-12.521 18.687,-23.937 -7.574,-12.222 -13.702,-22.074 -21.562,-34.782 z m -97.375,7.438 c -9.629,2.944 -19.226,5.889 -28.281,8.531 -6.966,26.233 -12.763,54.693 -17.688,86.25 7.113,2.517 13.981,5.173 20.656,7.969 14.887,-18.79 30.276,-36.721 46.282,-53.563 0.266,-0.743 0.479,-1.474 0.75,-2.219 2.217,-6.088 4.666,-12.267 7.25,-18.5 -9.657,-9.263 -19.32,-18.739 -28.969,-28.468 z m -98.344,4.844 c -2.726,4.336 -6.097,9.699 -8.625,13.718 3.337,-0.499 7.073,-1.384 10.625,-2.094 -0.618,-3.599 -1.48,-8.452 -2,-11.624 z m 58.688,6.968 c -6.267,1.796 -12.526,3.671 -18.875,5.438 -0.903,0.251 -5.19,1.447 -5.938,1.656 -9.574,2.682 -14.625,4.031 -20.344,5.438 0.959,5.429 1.609,9.328 2.844,16.156 3.775,20.857 5.23,29.076 7.032,40.125 0.207,1.274 0.4,3.759 0.593,5.219 6.464,1.859 12.677,3.825 18.719,5.812 4.572,-29.252 9.725,-55.425 15.969,-79.844 z m -54.938,14.625 c -6.802,1.385 -13.259,2.509 -19.25,3.063 -3.989,6.343 -8.287,13.16 -13.687,21.75 0.973,5.795 1.189,12.146 0.75,19.437 -0.06,0.994 -0.178,2.018 -0.25,2.969 3.126,0.138 6.006,0.371 8.25,0.875 12.173,2.733 23.325,5.549 34.062,8.437 -0.028,-0.181 -0.065,-0.572 -0.094,-0.75 -1.788,-10.971 -3.236,-19.139 -7,-39.937 -1.21,-6.687 -1.836,-10.494 -2.781,-15.844 z m 219.125,9.907 c -8.512,10.785 -17.488,22.424 -16.531,21.25 -1.856,2.278 -7.251,8.794 -13.219,16.031 6.443,5.548 11.786,10.305 16.844,15.219 2.578,2.504 5.111,5.217 7.844,8.374 0.129,-0.143 0.471,-0.55 0.594,-0.687 4.054,-4.513 7.966,-8.797 11.75,-12.906 4.714,-5.12 9.03,-9.653 13.343,-14.157 -6.97,-11.191 -12.776,-20.47 -20.625,-33.124 z m -81.906,5.031 c -4.354,4.328 -8.629,8.775 -12.906,13.25 -7.909,22.523 -13.311,44.664 -16.282,67.25 3.843,2.201 7.676,4.621 11.5,7 3.807,-0.015 7.673,-0.015 12.063,-0.031 10.279,-13.01 21.722,-27.182 36.531,-45.094 0.401,-0.485 4.672,-5.677 7.282,-8.844 -2.286,-1.95 -6.155,-5.28 -6.157,-5.281 -12.598,-10.538 -18.157,-15.302 -24.906,-21.531 -2.364,-2.183 -4.75,-4.461 -7.125,-6.719 z m -179.188,24.219 c -1.817,2.892 -3.116,4.965 -5.281,8.406 1.616,-0.109 3.156,-0.188 4.688,-0.25 0.249,-2.846 0.527,-5.806 0.593,-8.156 z m 150.282,6.312 c -10.115,11.269 -19.932,23.064 -29.594,35.125 6.742,3.056 13.381,6.321 19.875,9.781 2.182,-15.073 5.429,-29.972 9.719,-44.906 z m 136.906,6.344 c -3.746,3.932 -7.418,7.757 -11.469,12.156 -3.754,4.078 -7.628,8.329 -11.656,12.812 -0.322,0.359 -1.23,1.405 -1.594,1.813 0.737,0.915 1.273,1.537 2.063,2.531 0.75,0.945 4.494,5.686 5.062,6.406 4.556,5.775 8.487,10.465 12.156,14.594 17.796,-0.016 37.832,-0.04 37.563,0.094 -0.416,0.208 -14.587,-22.298 -32.125,-50.406 z m -62.281,3.187 c -2.523,3.058 -6.734,8.183 -7.125,8.657 -12.441,15.047 -22.384,27.332 -31.469,38.718 14.975,-0.055 27.606,-0.105 42,-0.156 8.973,-10.246 14.496,-16.479 21.031,-23.875 -2.875,-3.363 -5.539,-6.27 -8.125,-8.781 -3.592,-3.49 -10.275,-9.32 -16.312,-14.563 z m -216.407,2.157 c -0.427,3.394 -0.893,6.917 -1.687,12.437 -1.021,7.101 -1.525,10.864 -2,15.094 -0.728,6.482 -1.125,12.074 -1.125,17.312 0,0.336 0.059,0.607 0.062,0.938 12.917,0.022 33.707,-0.058 52.876,-0.125 -0.088,-0.747 -0.197,-1.332 -0.282,-2.094 -0.466,-4.175 -0.896,-8.491 -1.375,-13.75 -0.231,-2.544 -0.973,-11.288 -1.125,-12.969 -0.285,-3.16 -0.526,-4.326 -0.781,-6.719 -11.716,-3.229 -23.947,-6.37 -37.469,-9.406 -1.856,-0.417 -4.355,-0.61 -7.094,-0.718 z m -10.187,0.25 c -3.282,0.168 -6.569,0.341 -10.25,0.718 -12.3579,19.629 -27.8163,44.175 -27.8438,44.282 -0.0792,0.308 14.2853,0.43 33.5308,0.5 -0.003,-0.317 -0.062,-0.587 -0.062,-0.907 0,-5.653 0.421,-11.611 1.188,-18.437 0.489,-4.363 0.995,-8.176 2.031,-15.375 0.606,-4.212 0.979,-7.369 1.406,-10.781 z M 180,363.438 c 0.116,1.216 0.22,1.57 0.344,2.937 0.153,1.697 0.926,10.444 1.156,12.969 0.473,5.196 0.887,9.465 1.344,13.562 0.128,1.151 0.304,2.044 0.437,3.156 3.599,-0.011 6.742,-0.022 10.157,-0.031 0.08,-7.484 0.696,-15.31 1.874,-23.469 0.201,-1.389 0.422,-2.656 0.626,-4.031 -5.195,-1.729 -10.423,-3.465 -15.938,-5.093 z m 25.562,8.312 c -0.11,0.757 -0.233,1.458 -0.343,2.219 -1.111,7.687 -1.733,15.055 -1.813,22.031 1.406,-0.004 2.794,0.004 4.188,0 4.517,-6.164 9.124,-12.201 13.75,-18.188 -5.138,-2.104 -10.375,-4.121 -15.782,-6.062 z m 166.782,7.719 c -4.521,5.122 -8.146,9.212 -14.094,16 8.727,-0.029 19.651,-0.077 26.875,-0.094 -2.136,-2.589 -4.105,-4.943 -6.813,-8.375 -0.571,-0.724 -4.29,-5.442 -5.031,-6.375 -0.361,-0.456 -0.588,-0.719 -0.937,-1.156 z m -141.438,2.5 c -3.636,4.658 -7.341,9.19 -10.906,13.969 11.685,-0.043 23.192,-0.083 35.562,-0.126 0.054,-0.512 0.132,-1.019 0.188,-1.531 -8.096,-4.429 -16.35,-8.535 -24.844,-12.312 z" style="opacity:1;fill:#005f6a"></path></g></g><g id="SvgjsG9717" transform="matrix(2.1353711576966083,0,0,2.1353711576966083,88.84885091349655,-25.622319694196015)" fill="#005f6a"><path d="M2.8809 12 l14 0 l0 4.681 l-9.3201 0 l0 23.319 l-4.6802 0 l0 -28 z M16.006 15.806999999999999 l0 -2.9328 l-12.252 0 l0 26.252 l2.9319 0 l0 -23.319 l9.3201 0 z M39.834 18.806 c1.9904 1.9913 2.9991 4.4116 2.9982 7.1932 c0 2.7807 -1.007 5.2136 -2.994 7.23 c-2 1.9703 -4.4188 2.9642 -7.1996 2.9642 c-2.778 0 -5.2088 -0.99216 -7.2256 -2.9502 c-1.9756 -2.035 -2.9686 -4.466 -2.9686 -7.244 c0 -2.7798 0.99392 -5.1984 2.9546 -7.1888 c2.0254 -1.9965 4.458 -3.0044 7.2396 -3.0044 c2.7841 0 5.2048 1.0096 7.1952 3.0001 z M39.216 32.6164 c1.8287 -1.8558 2.7431 -4.0604 2.7431 -6.6164 c0 -2.5542 -0.91432 -4.7456 -2.743 -6.5752 s-4.0212 -2.7439 -6.576 -2.7439 s-4.7608 0.91432 -6.6164 2.7439 c-1.8025 1.8287 -2.7038 4.02 -2.7038 6.5752 s0.90124 4.7608 2.7038 6.6164 c1.8558 1.8025 4.0604 2.7038 6.6164 2.7038 c2.5542 0 4.7468 -0.90124 6.576 -2.7038 z M42.524 16.115 c2.7702 2.744 4.1556 6.0396 4.1564 9.8848 c0 3.9004 -1.3855 7.196 -4.1556 9.8848 c-2.7177 2.744 -6.0116 4.1156 -9.8848 4.1156 s-7.1688 -1.3724 -9.8848 -4.1156 c-2.744 -2.7168 -4.1156 -6.0116 -4.1156 -9.8848 c0 -3.8462 1.3715 -7.1408 4.1156 -9.8848 c2.6897 -2.744 5.9844 -4.1156 9.8848 -4.1156 c3.8724 0 7.1672 1.3724 9.884 4.1156 z M41.903999999999996 35.2692 c2.6294 -2.5534 3.9022 -5.5812 3.903 -9.2692 c0 -3.6364 -1.2745 -6.6664 -3.8969 -9.2632 c-2.5761 -2.6014 -5.606 -3.8628 -9.2692 -3.8628 c-3.6906 0 -6.7196 1.2605 -9.2608 3.8532 c-2.6032 2.6032 -3.8655 5.6348 -3.8655 9.2728 c0 3.6644 1.2614 6.694 3.8567 9.2632 c2.5752 2.6006 5.6052 3.862 9.2696 3.862 c3.6626 0 6.6932 -1.2614 9.2632 -3.8559 z M73.126 12 l-14 13.999 l14 14 l-6.5753 0 l-14.07 -13.976 l14.07 -14.024 l6.5753 0 z M71.01500000000001 39.12544 l-13.125 -13.125 l0.618 -0.618 l12.507 -12.508 l-4.1041 0 l-13.192 13.148 l13.192 13.103 l4.105 0 z"></path></g><g id="SvgjsG9718" transform="matrix(0.4803695601530888,0,0,0.4803695601530888,92.92314094367408,66.19464238258155)" fill="#005f6a"><path d="M0.16 8 l0 -2 l6.8 0 l0 2 l-2.3 0 l0 12 l-2.2 0 l0 -12 l-2.3 0 z M17.450000000000003 6 l2.24 14 l-2.22 0 l-0.38 -2.54 l-2.7 0 l-0.38 2.54 l-2.02 0 l2.24 -14 l3.22 0 z M15.71 8.48 l-1.04 7.08 l2.12 0 l-1.04 -7.08 l-0.04 0 z M26.12 20 l0 -14 l2.2 0 l0 12 l3.62 0 l0 2 l-5.82 0 z M40.510000000000005 8 l0 3.9 l3.02 0 l0 2 l-3.02 0 l0 4.1 l3.8 0 l0 2 l-6 0 l0 -14 l6 0 l0 2 l-3.8 0 z M55.78 20 l-2.7 -10.14 l-0.04 0 l0 10.14 l-1.98 0 l0 -14 l2.76 0 l2.22 8.38 l0.04 0 l0 -8.38 l1.96 0 l0 14 l-2.26 0 z M64.39 8 l0 -2 l6.8 0 l0 2 l-2.3 0 l0 12 l-2.2 0 l0 -12 l-2.3 0 z M88.09 9.22 l0 7.56 c0 1 0.44 1.38 1.14 1.38 s1.14 -0.38 1.14 -1.38 l0 -7.56 c0 -1 -0.44 -1.38 -1.14 -1.38 s-1.14 0.38 -1.14 1.38 z M85.89000000000001 16.64 l0 -7.28 c0 -2.24 1.18 -3.52 3.34 -3.52 s3.34 1.28 3.34 3.52 l0 7.28 c0 2.24 -1.18 3.52 -3.34 3.52 s-3.34 -1.28 -3.34 -3.52 z M102.64000000000001 6 c2.2 0 3.28 1.22 3.28 3.46 l0 1.82 c0 2.24 -1.08 3.46 -3.28 3.46 l-1.04 0 l0 5.26 l-2.2 0 l0 -14 l3.24 0 z M102.64000000000001 8 l-1.04 0 l0 4.74 l1.04 0 c0.7 0 1.08 -0.32 1.08 -1.32 l0 -2.1 c0 -1 -0.38 -1.32 -1.08 -1.32 z M114.55000000000001 8 l0 3.9 l3.02 0 l0 2 l-3.02 0 l0 4.1 l3.8 0 l0 2 l-6 0 l0 -14 l6 0 l0 2 l-3.8 0 z M131.96 20 l-2.24 0 c-0.12 -0.36 -0.2 -0.58 -0.2 -1.72 l0 -2.2 c0 -1.3 -0.44 -1.78 -1.44 -1.78 l-0.76 0 l0 5.7 l-2.2 0 l0 -14 l3.32 0 c2.28 0 3.26 1.06 3.26 3.22 l0 1.1 c0 1.44 -0.46 2.36 -1.44 2.82 l0 0.04 c1.1 0.46 1.46 1.5 1.46 2.96 l0 2.16 c0 0.68 0.02 1.18 0.24 1.7 z M128.38 8 l-1.06 0 l0 4.3 l0.86 0 c0.82 0 1.32 -0.36 1.32 -1.48 l0 -1.38 c0 -1 -0.34 -1.44 -1.12 -1.44 z M143.45000000000002 6 l2.24 14 l-2.22 0 l-0.38 -2.54 l-2.7 0 l-0.38 2.54 l-2.02 0 l2.24 -14 l3.22 0 z M141.71 8.48 l-1.04 7.08 l2.12 0 l-1.04 -7.08 l-0.04 0 z M151.48000000000002 8 l0 -2 l6.8 0 l0 2 l-2.3 0 l0 12 l-2.2 0 l0 -12 l-2.3 0 z M164.65000000000003 20 l0 -14 l2.2 0 l0 14 l-2.2 0 z M178.56000000000003 20 l-2.7 -10.14 l-0.04 0 l0 10.14 l-1.98 0 l0 -14 l2.76 0 l2.22 8.38 l0.04 0 l0 -8.38 l1.96 0 l0 14 l-2.26 0 z M191.11 14.2 l0 -2 l3.08 0 l0 4.44 c0 2.24 -1.12 3.52 -3.28 3.52 s-3.28 -1.28 -3.28 -3.52 l0 -7.28 c0 -2.24 1.12 -3.52 3.28 -3.52 s3.28 1.28 3.28 3.52 l0 1.36 l-2.08 0 l0 -1.5 c0 -1 -0.44 -1.38 -1.14 -1.38 s-1.14 0.38 -1.14 1.38 l0 7.56 c0 1 0.44 1.36 1.14 1.36 s1.14 -0.36 1.14 -1.36 l0 -2.58 l-1 0 z M214.55 20 l-2.14 -5.58 l-0.68 1.28 l0 4.3 l-2.2 0 l0 -14 l2.2 0 l0 6.06 l0.04 0 l2.84 -6.06 l2.2 0 l-3.06 6.24 l3.06 7.76 l-2.26 0 z M227.92000000000002 20 l-2.7 -10.14 l-0.04 0 l0 10.14 l-1.98 0 l0 -14 l2.76 0 l2.22 8.38 l0.04 0 l0 -8.38 l1.96 0 l0 14 l-2.26 0 z M239.19 9.22 l0 7.56 c0 1 0.44 1.38 1.14 1.38 s1.14 -0.38 1.14 -1.38 l0 -7.56 c0 -1 -0.44 -1.38 -1.14 -1.38 s-1.14 0.38 -1.14 1.38 z M236.99 16.64 l0 -7.28 c0 -2.24 1.18 -3.52 3.34 -3.52 s3.34 1.28 3.34 3.52 l0 7.28 c0 2.24 -1.18 3.52 -3.34 3.52 s-3.34 -1.28 -3.34 -3.52 z M256.18 20 l-0.78 -7.46 l-0.04 0 l-0.78 7.46 l-3.02 0 l-1.56 -14 l2.14 0 l1.16 11.04 l0.04 0 l1.04 -11.04 l2.12 0 l1.08 11.12 l0.04 0 l1.12 -11.12 l1.92 0 l-1.56 14 l-2.92 0 z M267.17 20 l0 -14 l2.2 0 l0 12 l3.62 0 l0 2 l-5.82 0 z M281.56 8 l0 3.9 l3.02 0 l0 2 l-3.02 0 l0 4.1 l3.8 0 l0 2 l-6 0 l0 -14 l6 0 l0 2 l-3.8 0 z M292.13 20 l0 -14 l3.48 0 c2.2 0 3.28 1.22 3.28 3.46 l0 7.08 c0 2.24 -1.08 3.46 -3.28 3.46 l-3.48 0 z M295.57 8 l-1.24 0 l0 10 l1.24 0 c0.7 0 1.12 -0.36 1.12 -1.36 l0 -7.28 c0 -1 -0.42 -1.36 -1.12 -1.36 z M309 14.2 l0 -2 l3.08 0 l0 4.44 c0 2.24 -1.12 3.52 -3.28 3.52 s-3.28 -1.28 -3.28 -3.52 l0 -7.28 c0 -2.24 1.12 -3.52 3.28 -3.52 s3.28 1.28 3.28 3.52 l0 1.36 l-2.08 0 l0 -1.5 c0 -1 -0.44 -1.38 -1.14 -1.38 s-1.14 0.38 -1.14 1.38 l0 7.56 c0 1 0.44 1.36 1.14 1.36 s1.14 -0.36 1.14 -1.36 l0 -2.58 l-1 0 z M321.10999999999996 8 l0 3.9 l3.02 0 l0 2 l-3.02 0 l0 4.1 l3.8 0 l0 2 l-6 0 l0 -14 l6 0 l0 2 l-3.8 0 z"></path></g></g></svg> 